<svg width="670" height="512" viewBox="0 0 670 512" fill="none" xmlns="http://www.w3.org/2000/svg">
<g clip-path="url(#clip0_2_108)">
<path d="M387.761 509.543C379.829 508.978 377.761 510.543 365.761 509.543H343.761L346.623 456.894L381.257 470.773L553.371 474.998L553.27 475.29C553.192 475.515 545.551 497.867 551.524 506.332L551.771 506.682L551.288 506.686L393.4 508.134C391.677 508.15 389.471 509.665 387.761 509.543Z" fill="#F2F2F2"/>
<path d="M396.688 510.231C381.367 509.141 365.502 515.097 352.26 508.373L341.676 509.014L341.646 508.925C341.564 508.681 336.564 469.339 346.672 454.085L347.117 453.414L347.464 457.027L344.132 506.035L351.518 503.57C369.455 512.013 390.787 506.437 411.317 506.359L551.031 505.843C553.958 505.833 556.396 507.833 556.474 510.302L556.482 510.543L405.127 510.531C402.305 510.531 399.492 510.431 396.688 510.231Z" fill="#CCCCCC"/>
<path d="M543.667 485.616L386.44 482.491L386.279 482.431L349.132 468.509L349.834 466.636L386.821 480.499L543.707 483.616L543.667 485.616Z" fill="#E6E6E6"/>
<path d="M542.828 494.035L385.601 490.91L385.441 490.85L348.293 476.928L348.995 475.055L385.983 488.918L542.868 492.035L542.828 494.035Z" fill="#E6E6E6"/>
<path d="M541.989 502.455L384.762 499.329L384.602 499.269L347.454 485.346L348.156 483.473L385.144 497.337L542.029 500.455L541.989 502.455Z" fill="#E6E6E6"/>
<path d="M397.774 475.542C383.197 474.557 368.984 470.546 356.041 463.766L345.143 457.986L345.428 455.129C345.507 454.709 345.739 454.334 346.078 454.075C346.418 453.816 346.841 453.692 347.266 453.727L348.228 453.738L494.857 455.896C504.453 456.015 513.962 457.741 522.989 461.002L554.937 472.601L554.92 472.77C554.652 475.462 551.938 477.542 548.74 477.505L404.306 475.812C402.121 475.787 399.944 475.696 397.774 475.542Z" fill="#E6E6E6"/>
<path d="M554.63 473.22L554.597 473.218L378.763 469.189L378.641 469.133L346.939 454.452L347.261 453.961L348.224 453.973L379.057 468.259L553.261 472.247L554.657 472.28L554.63 473.22Z" fill="#CCCCCC"/>
<path d="M417.935 455L415.703 454.969L365.311 454.223L362.923 454.19C374.437 466.448 399.895 469.515 437.211 464.766L417.935 455Z" fill="#CCCCCC"/>
<path d="M559.613 161.814L562.687 168.965L557.663 194.36L506.408 187.234L506.817 156.267L507.846 149.485L559.613 161.814Z" fill="#FFB6B6"/>
<path d="M586.094 490.943H574.786L569.404 447.327H586.094V490.943Z" fill="#FFB6B6"/>
<path d="M552.458 505.705C552.459 506.986 552.968 508.214 553.874 509.12C554.78 510.026 556.008 510.535 557.289 510.536H578.802L582.511 502.881L583.951 510.536H592.059L589.78 483.194L586.094 482.978L573.71 482.241L571.714 482.116V489.862L554.545 501.724C553.901 502.169 553.374 502.764 553.011 503.457C552.648 504.151 552.458 504.922 552.458 505.705Z" fill="#5E5E60"/>
<path d="M481.576 440.943H470.268L463.616 376.73L484.863 375.461L481.576 440.943Z" fill="#FFB6B6"/>
<path d="M447.939 455.705C447.94 456.986 448.45 458.214 449.355 459.12C450.261 460.026 451.489 460.535 452.77 460.536H474.283L477.992 452.881L479.432 460.536H487.541L485.261 433.194L481.972 433.001L469.373 432.241L467.196 432.116V439.862L450.026 451.724C449.382 452.169 448.856 452.764 448.492 453.457C448.129 454.151 447.939 454.922 447.939 455.705V455.705Z" fill="#5E5E60"/>
<path d="M590.894 453.331H590.85L588.675 382.412C590.082 379.697 590.797 376.677 590.754 373.619C590.712 370.562 589.914 367.562 588.432 364.888L588.121 364.324L588.928 360.582C589.965 355.774 589.489 350.763 587.566 346.237L585.537 280.083C592.785 233.109 558.242 202.474 558.242 202.474L561.417 177.853L505.547 179.123L506.497 202.474L495.388 240.642C489.542 297.602 450.194 333.404 456.175 387.873C456.187 388.03 456.164 388.187 456.106 388.333C455.5 390.178 455.286 392.13 455.479 394.063C455.673 395.996 456.269 397.867 457.23 399.555C457.479 399.986 457.65 400.457 457.735 400.947C458.968 410.496 459.128 398.417 460.761 407.882L460.443 408.042C459.299 408.437 458.809 410.022 459.347 411.582C459.885 413.142 461.249 414.087 462.393 413.692L492.26 414.011C493.404 413.617 493.895 412.032 493.357 410.472C492.818 408.911 491.454 407.967 490.31 408.362L488.452 409.302L491.561 399.131L492.65 398.113C493.173 397.626 493.578 397.027 493.835 396.361C494.093 395.695 494.197 394.979 494.139 394.267C494.081 393.555 493.863 392.866 493.501 392.25C493.139 391.634 492.642 391.108 492.048 390.712L495.145 374.184L494.705 361.684L495.611 347.504L534.8 290.718L550.655 369.156L566.85 454.12C566.473 454.461 566.189 454.893 566.026 455.375C565.863 455.857 565.827 456.373 565.921 456.873C566.07 457.571 566.458 458.196 567.017 458.641C567.577 459.085 568.273 459.321 568.987 459.308H590.973C591.434 459.307 591.888 459.2 592.301 458.995C592.714 458.79 593.074 458.493 593.353 458.126C593.632 457.759 593.823 457.333 593.91 456.88C593.998 456.427 593.979 455.961 593.857 455.516C593.671 454.877 593.281 454.317 592.745 453.922C592.21 453.527 591.559 453.319 590.894 453.331V453.331Z" fill="#B0B0B0"/>
<path d="M571.343 41.1403C571.344 45.6682 570.234 50.1273 568.11 54.1261C565.986 58.1249 562.913 61.5412 559.161 64.0751C555.408 66.609 551.091 68.183 546.589 68.6589C542.086 69.1348 537.535 68.4982 533.336 66.8048C529.136 65.1114 525.417 62.413 522.504 58.9466C519.591 55.4802 517.573 51.3517 516.628 46.9235C515.684 42.4954 515.84 37.9029 517.084 33.5494C518.328 29.1958 520.622 25.2142 523.765 21.9541L523.897 21.8215C524.119 21.5891 524.34 21.3567 524.572 21.1354C524.574 21.1354 524.575 21.1351 524.577 21.1346C524.578 21.134 524.579 21.1332 524.58 21.1322C524.581 21.1311 524.582 21.1299 524.583 21.1285C524.583 21.1272 524.583 21.1257 524.583 21.1243C524.901 20.8927 525.193 20.6295 525.458 20.3387C529.192 15.1207 533.425 10.7452 543.681 13.4787C558.446 17.4141 571.343 25.86 571.343 41.1403Z" fill="#5E5E60"/>
<path d="M419.391 29.2986C419.329 30.7786 419.591 32.2543 420.161 33.6218C420.73 34.9893 421.592 36.2154 422.687 37.2136C423.781 38.2118 425.081 38.958 426.495 39.3994C427.909 39.8409 429.403 39.967 430.87 39.7688L502.208 98.3154L513.104 79.1632L439.556 27.6362C439.059 25.1922 437.684 23.0152 435.689 21.5177C433.695 20.0202 431.221 19.3062 428.735 19.5111C426.25 19.7161 423.926 20.8256 422.204 22.6295C420.481 24.4334 419.481 26.8064 419.391 29.2987V29.2986Z" fill="#FFB6B6"/>
<path d="M532.33 115.581C532.33 115.581 532.308 113.473 520.968 113.554C506.891 113.655 468.122 93.4448 471.514 74.4115C469.904 75.139 468.097 75.3102 466.379 74.8981C464.661 74.486 463.129 73.5141 462.024 72.1353L480.898 53.9637C486.82 54.3637 486.881 58.3268 486.373 60.6024L501.542 66.6297L541.048 89.3269L534.072 112.126L532.33 115.581Z" fill="#1976D2"/>
<path d="M536.866 70.7358C549.676 70.7358 560.061 60.3509 560.061 47.5404C560.061 34.7299 549.676 24.345 536.866 24.345C524.055 24.345 513.67 34.7299 513.67 47.5404C513.67 60.3509 524.055 70.7358 536.866 70.7358Z" fill="#FFB7B7"/>
<path d="M504.986 162.912C503.705 164.622 503.051 166.72 503.133 168.856C503.216 170.991 504.03 173.032 505.44 174.638C505.451 175.319 505.553 175.976 506.517 178.415C506.643 178.651 506.791 178.875 506.959 179.084C506.991 179.135 507.025 179.184 507.061 179.231C508.077 180.544 509.489 181.495 511.087 181.942L553.547 193.793L559.16 195.357L560.147 195.63L560.691 187.963C561.954 186.917 562.8 185.453 563.076 183.837C563.353 182.221 563.042 180.559 562.2 179.152L561.417 177.859L565.976 165.6L566.418 164.386L578.042 133.098L578.054 131.011L578.076 128.856L578.19 113.818C578.195 109.079 577.102 104.403 574.997 100.157C572.892 95.9106 569.831 92.2101 566.055 89.3454C562.616 86.7176 558.652 84.861 554.431 83.9019L554.34 83.8906L549.748 77.7099L531.115 79.5698L529.573 82.7338L527.701 86.5443L514.195 94.5848L509.579 105.313L506.46 112.571C501.629 116.041 498.749 120.498 497.921 125.806C496.152 137.078 504.045 148.362 504.986 149.655L505.224 162.595L504.986 162.912Z" fill="#1976D2"/>
<path d="M561.141 53.6212C560.931 53.588 560.72 53.5437 560.51 53.5105C556.892 52.8688 553.274 52.2382 549.667 51.5852L549.335 43.4086L544.964 50.7332C534.995 54.0416 525.668 52.1717 516.893 48.0446C513.999 46.6707 511.191 45.1225 508.484 43.4086C507.593 29.58 513.184 20.727 523.588 21.6555C523.968 21.6894 524.24 21.3015 524.572 21.1354C524.574 21.1354 524.575 21.1351 524.577 21.1346C524.578 21.134 524.579 21.1332 524.58 21.1321C524.581 21.1311 524.582 21.1299 524.583 21.1285C524.583 21.1272 524.583 21.1257 524.583 21.1243C525.148 20.8587 525.723 20.6043 526.298 20.372C530.803 18.6116 535.714 18.1658 540.462 19.0864C545.21 20.0069 549.599 22.256 553.119 25.5723C560.2 32.3329 563.387 43.4971 561.141 53.6212Z" fill="#5E5E60"/>
<path d="M560.51 53.5105C560.51 53.5105 553.639 27.8627 524.185 21.943C524.152 21.9321 524.041 21.8878 523.897 21.8215C523.809 21.7661 523.698 21.7107 523.588 21.6555C523.92 21.4673 524.24 21.3015 524.572 21.1353C524.574 21.1354 524.575 21.1351 524.577 21.1346C524.578 21.134 524.579 21.1332 524.58 21.1321C524.581 21.1311 524.582 21.1299 524.583 21.1285C524.583 21.1272 524.583 21.1257 524.583 21.1243C524.871 20.8587 525.159 20.5932 525.458 20.3387L526.298 20.372C526.298 20.372 555.852 15.6916 560.51 53.5105Z" fill="#1976D2"/>
<path d="M278.647 511.359H667.928C668.259 511.359 668.576 511.228 668.81 510.994C669.044 510.76 669.175 510.443 669.175 510.112C669.175 509.781 669.044 509.464 668.81 509.23C668.576 508.996 668.259 508.865 667.928 508.865H278.647C278.316 508.865 277.999 508.996 277.765 509.23C277.531 509.464 277.4 509.781 277.4 510.112C277.4 510.443 277.531 510.76 277.765 510.994C277.999 511.228 278.316 511.359 278.647 511.359V511.359V511.359Z" fill="#CCCCCC"/>
<path d="M382.032 190.769V191.421C380.63 189.778 379.199 188.149 377.783 186.52C377.188 185.84 376.593 185.16 375.998 184.48C373.477 181.619 370.941 178.768 368.392 175.925C365.828 173.092 363.264 170.26 360.672 167.441C360.049 166.761 359.426 166.081 358.789 165.401C358.278 164.83 357.724 164.3 357.131 163.815C356.533 163.317 355.846 162.937 355.106 162.696C354.254 162.46 353.356 162.45 352.5 162.668C351.522 162.894 350.587 163.249 349.639 163.546C348.661 163.872 347.698 164.183 346.721 164.495C344.766 165.132 342.826 165.77 340.871 166.407C340.847 166.417 340.822 166.422 340.797 166.421C340.771 166.421 340.746 166.416 340.723 166.406C340.699 166.396 340.678 166.382 340.66 166.364C340.642 166.346 340.628 166.324 340.619 166.301L340.616 166.294C340.605 166.267 340.6 166.238 340.601 166.209C340.602 166.18 340.61 166.152 340.623 166.126C340.637 166.1 340.656 166.078 340.679 166.06C340.702 166.043 340.729 166.031 340.758 166.025C341.239 165.869 341.735 165.713 342.231 165.557C344.199 164.906 346.154 164.268 348.123 163.631C349.1 163.305 350.077 162.994 351.055 162.682C351.961 162.338 352.919 162.146 353.888 162.115C355.47 162.229 356.954 162.926 358.052 164.07C358.661 164.637 359.214 165.231 359.766 165.841C360.417 166.549 361.069 167.257 361.721 167.965C364.341 170.826 366.942 173.697 369.525 176.577C372.117 179.466 374.685 182.361 377.23 185.26C377.414 185.472 377.598 185.685 377.783 185.897C379.213 187.511 380.615 189.141 382.032 190.769Z" fill="white"/>
<path d="M356.911 166.425C356.376 165.735 355.663 165.205 354.849 164.892L354.043 164.92C360.365 174.757 368.647 183.185 378.373 189.678C371.219 181.927 364.065 174.176 356.911 166.425Z" fill="white"/>
<path d="M488.841 268.655L456.754 96.8452C456.205 94.013 454.71 91.4513 452.514 89.5802C450.318 87.7092 447.551 86.6397 444.668 86.5471C444.408 86.5414 444.149 86.5414 443.89 86.5471L422.031 87.3313L419.678 87.4177L408.769 87.8098L406.416 87.8906L399.399 88.1443L257.901 93.2241C257.688 93.2357 257.469 93.2356 257.256 93.2298L225.548 92.5668L213.814 92.3246L213.44 92.3189L204.779 92.1344L129.314 90.566L109.306 90.145L99.44 89.9433L97.076 89.8913L85.8265 89.6607L83.4682 89.6088L71.9592 89.3724L69.6009 89.3205L56.9561 89.0552L54.9726 89.0149L43.6943 88.7785L41.9126 88.7439H41.6532C38.659 88.7561 35.7656 89.8265 33.4843 91.7658C31.2031 93.7052 29.681 96.3886 29.1871 99.3418L0.166735 277.627C-0.127964 279.433 -0.0265026 281.281 0.464068 283.044C0.954639 284.807 1.82257 286.442 3.0078 287.836C4.19303 289.231 5.66718 290.35 7.32814 291.118C8.9891 291.886 10.7972 292.284 12.6271 292.284H179.288C181.741 292.291 184.128 293.078 186.103 294.533L189.263 296.874C191.441 298.476 194.072 299.345 196.776 299.353C228.964 290.857 262.806 290.857 294.994 299.353C296.654 299.357 298.298 299.032 299.831 298.397C301.364 297.761 302.756 296.828 303.926 295.651C305.926 293.651 308.596 292.462 311.421 292.313L477.09 283.583C478.887 283.489 480.642 283.012 482.24 282.185C483.837 281.357 485.239 280.198 486.352 278.784C487.464 277.371 488.262 275.736 488.692 273.989C489.121 272.242 489.172 270.423 488.841 268.655V268.655Z" fill="#CCCCCC"/>
<path d="M443.441 241.863C443.228 247.685 440.712 253.185 436.446 257.152C432.18 261.12 426.513 263.232 420.691 263.023C411.071 262.683 399.591 262.513 387.131 262.773C346.441 263.643 295.321 269.243 264.571 289.383C260.706 291.92 256.139 293.172 251.521 292.963C251.181 292.943 250.851 292.923 250.511 292.893C245.723 292.455 241.211 290.456 237.671 287.203C220.731 271.703 181.881 252.933 92.9509 251.613C92.5809 251.613 92.2209 251.593 91.8609 251.573C88.9805 251.392 86.1641 250.644 83.5727 249.374C80.9812 248.104 78.6656 246.335 76.758 244.17C74.8504 242.004 73.3884 239.483 72.4555 236.752C71.5225 234.021 71.137 231.133 71.3209 228.253L80.0609 89.5428L81.3709 68.7528L83.6709 32.3828C83.9028 28.7201 85.5204 25.283 88.1951 22.77C90.8697 20.2569 94.4008 18.8563 98.0709 18.8528H98.1609L151.141 19.1628C173.461 20.1728 191.948 23.0161 206.601 27.6928C211.606 29.245 216.476 31.2049 221.161 33.5529C227.56 36.6552 233.309 40.9484 238.101 46.2029C241.086 49.5595 245.157 51.758 249.601 52.4129C250.29 52.5158 250.985 52.5792 251.681 52.6029C255.779 52.7724 259.823 51.6151 263.211 49.3029C297.821 26.1129 368.351 24.3529 407.301 25.3529C412.748 25.4799 417.953 27.6301 421.901 31.3846C425.85 35.1391 428.26 40.229 428.661 45.6629L430.241 66.3529L431.811 86.9828L440.871 206.213L443.391 239.383C443.452 240.208 443.469 241.036 443.441 241.863V241.863Z" fill="#F2F2F2"/>
<path d="M106.131 67.6626C138.058 57.4763 173.677 60.1731 203.924 74.5235C212.554 78.5968 220.704 83.6168 228.225 89.4911C230.353 91.1609 233.38 88.1741 231.23 86.4865C203.449 64.9388 168.543 54.7027 133.525 57.8347C123.837 58.7016 114.273 60.6232 105.002 63.5652C102.406 64.3932 103.516 68.4972 106.131 67.6626H106.131Z" fill="#3F3D56"/>
<path d="M281.815 91.1395C311.499 75.5373 347.045 72.135 379.319 80.9915C388.52 83.5103 397.412 87.0459 405.831 91.5327C408.243 92.8196 410.392 89.1528 407.976 87.8636C377.216 71.4503 340.292 67.672 306.701 76.8214C297.331 79.3783 288.267 82.9491 279.67 87.4704C277.249 88.7432 279.394 92.412 281.815 91.1395Z" fill="#3F3D56"/>
<path d="M281.815 119.468C311.499 103.866 347.045 100.463 379.319 109.32C388.52 111.839 397.412 115.374 405.831 119.861C408.243 121.148 410.392 117.481 407.976 116.192C377.216 99.7785 340.292 96.0002 306.701 105.15C297.331 107.707 288.267 111.277 279.67 115.799C277.249 117.071 279.394 120.74 281.815 119.468L281.815 119.468Z" fill="#3F3D56"/>
<path d="M300.517 146.505L299.944 146.919C300.138 146.774 300.34 146.638 300.547 146.509L300.517 146.505Z" fill="white"/>
<path d="M106.131 95.9909C138.058 85.8046 173.677 88.5014 203.924 102.852C212.554 106.925 220.704 111.945 228.225 117.819C230.353 119.489 233.38 116.502 231.23 114.815C203.449 93.267 168.543 83.0309 133.525 86.1629C123.837 87.0298 114.273 88.9514 105.002 91.8934C102.406 92.7214 103.516 96.8254 106.131 95.9908L106.131 95.9909Z" fill="#3F3D56"/>
<path d="M106.131 124.319C138.058 114.133 173.677 116.83 203.924 131.18C212.554 135.253 220.704 140.273 228.225 146.148C230.353 147.817 233.38 144.831 231.23 143.143C203.449 121.595 168.543 111.359 133.525 114.491C123.837 115.358 114.273 117.28 105.002 120.222C102.406 121.05 103.516 125.154 106.131 124.319L106.131 124.319Z" fill="#3F3D56"/>
<path d="M106.131 152.647C138.058 142.461 173.677 145.158 203.924 159.508C212.554 163.581 220.704 168.601 228.225 174.476C230.353 176.146 233.38 173.159 231.23 171.471C203.449 149.923 168.543 139.687 133.525 142.819C123.837 143.686 114.273 145.608 105.002 148.55C102.406 149.378 103.516 153.482 106.131 152.647L106.131 152.647Z" fill="#3F3D56"/>
<path d="M106.131 180.976C138.058 170.789 173.677 173.486 203.924 187.836C212.554 191.91 220.704 196.93 228.225 202.804C230.353 204.474 233.38 201.487 231.23 199.799C203.449 178.252 168.543 168.016 133.525 171.148C123.837 172.015 114.273 173.936 105.002 176.878C102.406 177.706 103.516 181.81 106.131 180.976L106.131 180.976Z" fill="#3F3D56"/>
<path d="M106.131 209.304C138.058 199.117 173.677 201.814 203.924 216.165C212.554 220.238 220.704 225.258 228.225 231.132C230.353 232.802 233.38 229.815 231.23 228.128C203.449 206.58 168.543 196.344 133.525 199.476C123.837 200.343 114.273 202.264 105.002 205.206C102.406 206.034 103.516 210.138 106.131 209.304H106.131Z" fill="#3F3D56"/>
<path d="M221.161 33.5528V101.483C221.161 102.833 218.801 103.963 215.621 104.273C215.594 104.271 215.567 104.275 215.541 104.283C215.011 104.323 214.451 104.353 213.881 104.353C212.128 104.385 210.383 104.1 208.731 103.513C208.581 103.453 208.431 103.383 208.281 103.323C208.141 103.243 207.991 103.173 207.851 103.093C207.061 102.623 206.601 102.073 206.601 101.483V27.6928C211.606 29.2449 216.476 31.2048 221.161 33.5528V33.5528Z" fill="#1976D2"/>
<path d="M251.679 49.3082H249.599V291.543H251.679V49.3082Z" fill="#E6E6E6"/>
<path d="M477.901 215.135C479.376 215 480.803 214.543 482.083 213.797C483.362 213.05 484.463 212.032 485.306 210.815C486.15 209.597 486.716 208.21 486.966 206.749C487.215 205.289 487.141 203.792 486.749 202.364L529.927 182.208L555.921 140.159L535.489 131.91L517.953 165.794L473.568 195.371C471.212 196.189 469.237 197.842 468.019 200.018C466.8 202.194 466.422 204.741 466.956 207.177C467.49 209.613 468.899 211.769 470.916 213.235C472.934 214.702 475.419 215.378 477.901 215.135V215.135Z" fill="#FFB6B6"/>
<path d="M571.956 99.8773C571.956 99.8773 577.045 101.538 571.46 111.409C566.988 119.31 545.207 164.826 536.317 173.763C537.253 175.262 537.663 177.029 537.483 178.787C537.304 180.545 536.544 182.193 535.325 183.471L514.802 167.185C514.41 161.262 518.33 160.674 520.653 160.874L525.374 144.141L541.842 102.862L568.299 98.6114L571.956 99.8773Z" fill="#1976D2"/>
<path d="M572.399 22.5082C573.37 18.585 580.409 15.6882 568.351 10.2109C565.424 8.88163 565.546 4.30383 563.07 2.25373C560.595 0.203633 556.969 -0.746819 554.092 0.686121C551.523 1.96573 550.075 4.86153 549.767 7.71523C549.619 10.5874 549.95 13.4641 550.748 16.2273L550.514 16.5689C555.291 20.224 560.067 23.879 564.844 27.534C566.599 28.8771 568.894 30.2835 570.861 29.2757C573.088 28.1348 571.799 24.9372 572.399 22.5082Z" fill="#5E5E60"/>
<path d="M379.784 229.339L295.269 229.368C291.024 229.369 287.22 227.175 285.096 223.499C284.034 221.661 283.503 219.644 283.502 217.627C283.501 215.61 284.031 213.593 285.092 211.754L327.323 134.876C329.445 131.198 333.246 129.001 337.492 129C341.738 128.999 345.541 131.192 347.666 134.869L389.955 211.727C391.014 213.561 391.544 215.575 391.544 217.591C391.544 219.607 391.014 221.624 389.953 223.463C387.832 227.141 384.03 229.337 379.784 229.339H379.784H379.784ZM284.564 217.626C284.564 219.461 293.89 215.505 294.856 217.178C296.789 220.522 291.406 228.309 295.269 228.308C295.269 228.308 387.105 226.279 389.035 222.933C390 221.26 390.482 219.425 390.482 217.59C390.481 215.755 389.998 213.92 389.031 212.248L346.742 135.39C344.815 132.055 341.355 130.059 337.492 130.06C333.631 130.061 284.565 215.789 284.564 217.626H284.564V217.626Z" fill="#3F3D56"/>
<path d="M362.153 212.384C383.522 212.384 400.844 195.062 400.844 173.693C400.844 152.325 383.522 135.002 362.153 135.002C340.785 135.002 323.462 152.325 323.462 173.693C323.462 195.062 340.785 212.384 362.153 212.384Z" fill="#1976D2"/>
<path d="M362.16 197.411C364.122 197.411 365.713 195.821 365.713 193.859C365.713 191.897 364.122 190.306 362.16 190.306C360.198 190.306 358.608 191.897 358.608 193.859C358.608 195.821 360.198 197.411 362.16 197.411Z" fill="white"/>
<path d="M362.145 149.975C361.819 152.143 362.403 152.597 362.407 161.945C362.41 171.294 364.35 183.827 362.157 183.828C359.964 183.829 359.162 157.962 351.547 155.673C342.595 152.981 363.201 142.955 362.145 149.975V149.975Z" fill="white"/>
<path d="M310.224 193.447L306.729 200.833C310.955 197.803 317.555 195.191 322.808 193.792C317.914 191.427 311.925 187.616 308.347 183.842L310.358 191.646C286.786 186.845 269.859 168.762 269.851 148.048L269 147.755C269.007 169.391 285.701 188.545 310.224 193.447V193.447Z" fill="#3F3D56"/>
</g>
<defs>
<clipPath id="clip0_2_108">
<rect width="669.175" height="511.628" fill="white"/>
</clipPath>
</defs>
</svg>
